<?xml version="1.0" encoding="utf-8"?>
<svg version="1.1" id="图层_1" xmlns="http://www.w3.org/2000/svg" x="0px" y="0px"
    viewBox="0 0 48 48" style="enable-background:new 0 0 48 48;" xml:space="preserve">
<style type="text/css">
    .st0{opacity:0.2;enable-background:new    ;}
    .st1{fill:#FFEEE8;}
    .st2{fill:#733420;}
    .st3{opacity:0.1;enable-background:new    ;}
    .st4{fill:none;stroke:#CB7C62;stroke-width:3;stroke-linecap:round;}
    .st5{fill:#CB7C62;}
    .st6{fill:#FFEEE8;}
    .st7{opacity:0.2;fill:#FFEEE8;enable-background:new    ;}
</style>
<g class="st0">
    <path d="M11.5,9c0-1.1,0.9-2,2-2h21c1.1,0,2,0.9,2,2v35c0,1.1-0.9,2-2,2h-21c-1.1,0-2-0.9-2-2V9z"/>
</g>
<g>
    <path class="st1" d="M13.5,6c-1.1,0-2,0.9-2,2v35c0,1.1,0.9,2,2,2h21c1.1,0,2-0.9,2-2V8c0-1.1-0.9-2-2-2H13.5z"/>
</g>
<g>
    <path class="st1" d="M13.5,2c-1.1,0-2,0.9-2,2v35c0,1.1,0.9,2,2,2h21c1.1,0,2-0.9,2-2V4c0-1.1-0.9-2-2-2H13.5z"/>
</g>
<path class="st2" d="M36.5,6h-25v35h25V6z"/>
<path class="st3" d="M15,28.1c-0.2,0-0.4,0.1-0.6,0.2c-0.5,0.3-0.6,1-0.3,1.5l2.3,3.3c-2.1,1.9-3.6,4.5-3.9,7.5
    c-0.1,1.1,1.1,1.1,1.1,1.1h20.7c0,0,1.2,0,1.1-1.2c-0.3-3-1.7-5.6-3.9-7.5l2.2-3.3c0.3-0.5,0.2-1.2-0.3-1.5
    c-0.2-0.2-0.5-0.2-0.8-0.2c-0.3,0.1-0.5,0.2-0.7,0.5l-2.2,3.3c-1.7-1-3.7-1.6-5.9-1.6c-2.1,0-4.2,0.6-5.9,1.6l-2.2-3.3
    c-0.2-0.2-0.4-0.4-0.7-0.5C15.2,28.1,15.1,28.1,15,28.1z"/>
<path class="st4" d="M17.7,32.4l-2.7-4"/>
<path class="st4" d="M30.3,32.4l2.7-4"/>
<path class="st5" d="M24,29.5c-6,0-10.9,4.6-11.5,10.4C12.4,41,13.6,41,13.6,41h20.7c0,0,1.2,0,1.1-1.2C34.9,34,30,29.5,24,29.5z"/>
<path class="st0" d="M18.3,35.2c-0.8,0-1.4,0.6-1.4,1.4c0,0,0,0,0,0c0,0.8,0.6,1.4,1.4,1.4c0,0,0,0,0,0c0.8,0,1.4-0.6,1.4-1.4
    c0,0,0,0,0,0C19.7,35.9,19,35.2,18.3,35.2C18.3,35.2,18.3,35.2,18.3,35.2z M29.7,35.2c-0.8,0-1.4,0.6-1.4,1.4c0,0,0,0,0,0
    c0,0.8,0.6,1.4,1.4,1.4c0,0,0,0,0,0c0.8,0,1.4-0.6,1.4-1.4c0,0,0,0,0,0C31.2,35.9,30.5,35.2,29.7,35.2
    C29.7,35.2,29.7,35.2,29.7,35.2z"/>
<path class="st6" d="M18.3,34.5c0.8,0,1.4,0.6,1.4,1.4l0,0c0,0.8-0.6,1.4-1.4,1.4c0,0,0,0,0,0c-0.8,0-1.4-0.6-1.4-1.4l0,0
    C16.8,35.2,17.5,34.5,18.3,34.5L18.3,34.5z"/>
<path class="st6" d="M29.7,34.5c0.8,0,1.4,0.6,1.4,1.4l0,0c0,0.8-0.6,1.4-1.4,1.4l0,0c-0.8,0-1.4-0.6-1.4-1.4l0,0
    C28.3,35.2,29,34.5,29.7,34.5L29.7,34.5z"/>
<path class="st7" d="M15,27.3c-0.2,0-0.4,0.1-0.6,0.2c-0.4,0.3-0.6,0.8-0.4,1.3c0.1-0.2,0.2-0.4,0.4-0.5c0.2-0.1,0.4-0.2,0.6-0.2
    c0.1,0,0.1,0,0.2,0c0.3,0.1,0.5,0.2,0.7,0.5l2.2,3.3c1.7-1,3.7-1.6,5.9-1.6c2.1,0,4.2,0.6,5.9,1.6l2.2-3.3c0.2-0.2,0.4-0.4,0.7-0.5
    c0.3-0.1,0.6,0,0.8,0.2c0.2,0.1,0.3,0.3,0.4,0.5c0.2-0.5,0-1-0.4-1.3c-0.2-0.2-0.5-0.2-0.8-0.2c-0.3,0.1-0.5,0.2-0.7,0.5l-2.2,3.3
    c-1.7-1-3.7-1.6-5.9-1.6c-2.1,0-4.2,0.6-5.9,1.6l-2.2-3.3c-0.2-0.2-0.4-0.4-0.7-0.5C15.2,27.3,15.1,27.3,15,27.3z M31.9,32.6
    l-0.3,0.4c2.1,1.8,3.5,4.3,3.8,7.2c0-0.1,0-0.2,0-0.4C35.2,37,33.9,34.5,31.9,32.6z M16.1,32.6c-2,1.9-3.3,4.4-3.6,7.3
    c0,0.1,0,0.3,0,0.4c0.4-2.9,1.8-5.4,3.8-7.2L16.1,32.6z"/>
</svg>
